HIERARCHY
ROOT Hips
{
	OFFSET -0.001795 -0.223333 0.028219
	CHANNELS 6 Xposition Yposition Zposition Zrotation Yrotation Xrotation 
	JOINT LeftUpLeg
	{
		OFFSET 0.069520 -0.091406 -0.006815
		CHANNELS 3 Zrotation Yrotation Xrotation
		JOINT LeftLeg
		{
			OFFSET 0.034277 -0.375199 -0.004496
			CHANNELS 3 Zrotation Yrotation Xrotation
			JOINT LeftFoot
			{
				OFFSET -0.013596 -0.397961 -0.043693
				CHANNELS 3 Zrotation Yrotation Xrotation
				JOINT LeftToe
				{
					OFFSET 0.026358 -0.055791 0.119288
					CHANNELS 3 Zrotation Yrotation Xrotation
					End Site
					{
						OFFSET 0.000000 0.000000 0.000000
					}
				}
			}
		}
	}
	JOINT RightUpLeg
	{
		OFFSET -0.067670 -0.090522 -0.004320
		CHANNELS 3 Zrotation Yrotation Xrotation
		JOINT RightLeg
		{
			OFFSET -0.038290 -0.382569 -0.008850
			CHANNELS 3 Zrotation Yrotation Xrotation
			JOINT RightFoot
			{
				OFFSET 0.015774 -0.398415 -0.042312
				CHANNELS 3 Zrotation Yrotation Xrotation
				JOINT RightToe
				{
					OFFSET -0.025372 -0.048144 0.123348
					CHANNELS 3 Zrotation Yrotation Xrotation
					End Site
					{
						OFFSET 0.000000 0.000000 0.000000
					}
				}
			}
		}
	}
	JOINT Spine
	{
		OFFSET -0.002533 0.108963 -0.026696
		CHANNELS 3 Zrotation Yrotation Xrotation
		JOINT Spine1
		{
			OFFSET 0.005487 0.135180 0.001092
			CHANNELS 3 Zrotation Yrotation Xrotation
			JOINT Spine2
			{
				OFFSET 0.001457 0.052922 0.025425
				CHANNELS 3 Zrotation Yrotation Xrotation
				JOINT Neck
				{
					OFFSET -0.002778 0.213870 -0.042857
					CHANNELS 3 Zrotation Yrotation Xrotation
					JOINT Head
					{
						OFFSET 0.005152 0.064970 0.051349
						CHANNELS 3 Zrotation Yrotation Xrotation
						End Site
						{
							OFFSET 0.000000 0.000000 0.000000
						}
					}
				}
				JOINT LeftShoulder
				{
					OFFSET 0.078845 0.121749 -0.034090
					CHANNELS 3 Zrotation Yrotation Xrotation
					JOINT LeftArm
					{
						OFFSET 0.090977 0.030469 -0.008868
						CHANNELS 3 Zrotation Yrotation Xrotation
						JOINT LeftForeArm
						{
							OFFSET 0.259612 -0.012772 -0.027456
							CHANNELS 3 Zrotation Yrotation Xrotation
							JOINT LeftHand
							{
								OFFSET 0.249234 0.008986 -0.001171
								CHANNELS 3 Zrotation Yrotation Xrotation
								End Site
								{
									OFFSET 0.000000 0.000000 0.000000
								}
							}
						}
					}
				}
				JOINT RightShoulder
				{
					OFFSET -0.081759 0.118833 -0.038615
					CHANNELS 3 Zrotation Yrotation Xrotation
					JOINT RightArm
					{
						OFFSET -0.096012 0.032551 -0.009143
						CHANNELS 3 Zrotation Yrotation Xrotation
						JOINT RightForeArm
						{
							OFFSET -0.253742 -0.013329 -0.021401
							CHANNELS 3 Zrotation Yrotation Xrotation
							JOINT RightHand
							{
								OFFSET -0.255298 0.007772 -0.005559
								CHANNELS 3 Zrotation Yrotation Xrotation
								End Site
								{
									OFFSET 0.000000 0.000000 0.000000
								}
							}
						}
					}
				}
			}
		}
	}
}
MOTION
Frames: 13
Frame Time: 0.050000
-0.060012 0.976899 -0.004390 -1.957903 -9.635642 0.862358 10.116940 0.216386 5.607888 -4.740568 0.597157 -9.422003 -0.905888 4.097341 19.745826 0.000000 0.000000 0.000000 -4.362905 0.154304 0.794173 3.557973 -0.321000 -3.319575 2.917714 -4.501495 20.347150 0.000000 0.000000 0.000000 -2.332855 -0.108883 12.387912 12.053956 -3.912984 -13.090902 -0.570579 -6.545953 27.512010 -7.374261 4.264582 -21.081613 0.000000 0.000000 0.000000 -30.328352 -16.233792 14.116163 -49.095737 -33.206481 4.317303 26.573906 -69.600746 -10.459713 0.000000 0.000000 0.000000 18.026251 24.150982 8.463795 50.972130 26.575604 4.446086 -27.069957 39.846434 -8.801472 0.000000 0.000000 0.000000 
-0.059217 0.976516 -0.005146 -2.141505 -8.732762 1.339484 10.219351 0.153806 4.765287 -4.882439 0.590505 -9.564551 -0.652364 4.677525 20.092409 0.000000 0.000000 0.000000 -4.043583 0.137399 0.702395 3.117134 -0.308534 -3.789762 2.902946 -4.364045 20.370167 0.000000 0.000000 0.000000 -2.785162 -0.061105 12.476724 11.875264 -3.842686 -13.051638 -0.681921 -5.764161 27.521458 -6.917953 4.216451 -19.971534 0.000000 0.000000 0.000000 -31.244207 -14.937672 12.985511 -48.108786 -30.118695 2.723189 24.852164 -65.613718 -8.898058 0.000000 0.000000 0.000000 17.513719 23.998958 8.748482 51.617785 26.294898 4.314134 -26.098601 40.413198 -8.369675 0.000000 0.000000 0.000000 
-0.057969 0.976338 -0.005921 -2.201585 -8.203378 1.812758 10.291214 0.107932 3.787291 -4.932307 0.583482 -9.443605 -0.791928 4.708380 20.751210 0.000000 0.000000 0.000000 -3.963336 0.161494 0.209676 2.999702 -0.308887 -4.110595 2.677098 -4.911017 21.149413 0.000000 0.000000 0.000000 -3.095903 -0.022774 12.806569 11.218144 -3.557171 -13.482313 -0.563939 -4.914253 27.781473 -6.544311 4.184999 -19.024175 0.000000 0.000000 0.000000 -32.081525 -13.857069 11.981377 -46.664411 -28.525738 1.821780 21.668289 -61.557916 -6.698481 0.000000 0.000000 0.000000 17.312417 23.353195 8.736801 52.469061 26.431536 4.383177 -25.131432 40.873150 -7.915335 0.000000 0.000000 0.000000 
-0.056498 0.975802 -0.006665 -2.304984 -7.423086 2.186682 10.196443 0.064114 2.992602 -4.917758 0.569994 -9.396416 -0.557094 5.187391 20.891296 0.000000 0.000000 0.000000 -3.798146 0.161694 0.027000 2.696615 -0.302356 -4.361180 2.526313 -5.017225 21.200790 0.000000 0.000000 0.000000 -3.377759 0.007103 12.996869 10.905763 -3.420164 -13.641439 -0.892015 -4.150806 27.913673 -6.090180 4.082533 -18.392698 0.000000 0.000000 0.000000 -32.276037 -12.901232 10.844065 -45.464934 -27.460966 1.311700 18.664960 -58.305608 -4.934293 0.000000 0.000000 0.000000 17.076783 22.688781 8.729775 53.393999 26.354799 4.386508 -23.326840 41.750998 -7.222368 0.000000 0.000000 0.000000 
-0.054781 0.975458 -0.007209 -2.298973 -6.552416 2.583189 10.214825 0.018432 2.285280 -5.021449 0.560217 -9.583485 -0.920111 4.908025 21.296198 0.000000 0.000000 0.000000 -3.651255 0.170133 -0.255224 2.471453 -0.300623 -4.645219 1.885252 -5.974368 21.556172 0.000000 0.000000 0.000000 -3.835770 0.061038 13.084956 10.595640 -3.296853 -13.687101 -0.848606 -3.683204 27.812563 -5.944384 4.148352 -17.738748 0.000000 0.000000 0.000000 -32.728091 -12.504131 10.196702 -44.604756 -26.756318 1.042210 15.768650 -55.396251 -3.441391 0.000000 0.000000 0.000000 16.955059 22.537665 8.915404 54.078787 26.342217 4.454278 -22.514151 42.289287 -6.863907 0.000000 0.000000 0.000000 
-0.052800 0.974884 -0.007531 -2.233047 -5.863813 2.848329 9.837851 -0.007811 1.965659 -4.866799 0.542487 -10.079692 -0.798288 5.244482 21.551867 0.000000 0.000000 0.000000 -3.599845 0.173385 -0.373680 2.196803 -0.292233 -4.705063 1.417413 -6.469461 21.226948 0.000000 0.000000 0.000000 -4.100852 0.091637 13.253470 10.358478 -3.172634 -13.958463 -1.125846 -3.337852 27.923746 -5.850146 4.195235 -17.566336 0.000000 0.000000 0.000000 -32.757683 -12.165048 9.621996 -44.010203 -26.750078 1.055815 13.733278 -52.316028 -2.448355 0.000000 0.000000 0.000000 16.485046 22.053976 8.836664 55.047229 26.415476 4.561139 -20.974549 43.112116 -6.292908 0.000000 0.000000 0.000000 
-0.050543 0.974530 -0.007770 -2.244083 -5.370304 3.074426 9.625299 -0.029595 1.565103 -4.987291 0.537666 -10.311276 -0.425620 5.908897 21.862846 0.000000 0.000000 0.000000 -3.673002 0.187146 -0.558221 2.150939 -0.296180 -4.918588 1.156106 -6.924562 21.699265 0.000000 0.000000 0.000000 -4.351922 0.121452 13.252256 9.855188 -2.973273 -14.174281 -1.151987 -3.081422 28.017807 -5.888344 4.302598 -17.458419 0.000000 0.000000 0.000000 -33.012882 -12.105593 9.368685 -43.569822 -26.696602 1.044874 12.288120 -49.376610 -1.806908 0.000000 0.000000 0.000000 16.430359 22.187634 9.044984 55.538132 26.693680 4.753874 -19.828897 43.106686 -5.763551 0.000000 0.000000 0.000000 
-0.048152 0.974215 -0.008075 -2.330880 -5.087921 3.191300 9.368754 -0.039833 1.349709 -4.849148 0.527999 -10.517889 -0.077413 6.476412 22.067451 0.000000 0.000000 0.000000 -3.664843 0.195742 -0.707260 1.934207 -0.288621 -4.998649 1.212629 -6.912639 22.132256 0.000000 0.000000 0.000000 -4.563306 0.149016 13.395913 9.510105 -2.839646 -14.315050 -1.266813 -2.773126 27.975652 -6.010350 4.452734 -17.582608 0.000000 0.000000 0.000000 -32.912738 -11.936028 9.009010 -43.318017 -26.712770 1.094950 11.087968 -46.936381 -1.318811 0.000000 0.000000 0.000000 16.233794 22.103876 9.107032 56.226890 27.066202 5.035580 -18.613119 43.201823 -5.235647 0.000000 0.000000 0.000000 
-0.045843 0.974072 -0.008554 -2.344639 -4.633823 3.176636 9.235391 -0.051087 1.288860 -4.866004 0.520166 -10.677695 -0.176599 6.412389 22.055878 0.000000 0.000000 0.000000 -3.797557 0.198943 -0.729093 1.767258 -0.280939 -4.906140 1.348391 -6.676184 22.335209 0.000000 0.000000 0.000000 -4.752941 0.168819 13.518072 9.297389 -2.757545 -14.378818 -1.344336 -2.567057 28.030597 -5.927000 4.448929 -17.926238 0.000000 0.000000 0.000000 -32.775080 -12.210012 8.967032 -43.336820 -26.928047 1.245201 11.353893 -45.630639 -1.461794 0.000000 0.000000 0.000000 16.143271 22.449151 9.391281 56.529410 27.800355 5.456570 -18.393751 42.644924 -5.006498 0.000000 0.000000 0.000000 
-0.043886 0.973899 -0.009251 -2.398800 -4.450509 3.209981 9.033318 -0.053172 1.333962 -4.746937 0.513564 -10.873167 -0.049730 6.538361 21.728922 0.000000 0.000000 0.000000 -3.813458 0.202182 -0.784497 1.584604 -0.274943 -5.018114 1.450478 -6.593170 22.701960 0.000000 0.000000 0.000000 -4.935973 0.193590 13.621480 9.004560 -2.648988 -14.461390 -1.393198 -2.276312 27.924603 -5.771192 4.383509 -18.404897 0.000000 0.000000 0.000000 -32.606110 -12.259105 8.796288 -43.114268 -27.035178 1.321133 11.835259 -44.795812 -1.681726 0.000000 0.000000 0.000000 16.263769 22.544497 9.549964 56.887690 28.057400 5.672461 -17.653839 42.521636 -4.665886 0.000000 0.000000 0.000000 
-0.042429 0.973802 -0.010149 -2.409723 -4.150135 3.180929 8.861512 -0.056993 1.358955 -4.679242 0.506826 -11.107767 0.001392 6.657252 21.724873 0.000000 0.000000 0.000000 -3.858163 0.204500 -0.831926 1.511134 -0.272815 -5.025052 1.374598 -6.748085 23.038266 0.000000 0.000000 0.000000 -5.201903 0.225854 13.637110 8.783131 -2.554321 -14.637649 -1.390433 -1.952797 28.055479 -5.607695 4.336252 -18.798726 0.000000 0.000000 0.000000 -32.222442 -12.317709 8.572450 -43.051757 -27.262565 1.453127 13.059188 -44.497872 -2.193106 0.000000 0.000000 0.000000 16.496494 22.664347 9.766689 56.898355 28.412531 5.856896 -16.856255 42.195937 -4.272681 0.000000 0.000000 0.000000 
-0.041377 0.973680 -0.011122 -2.595310 -3.850881 3.295784 9.030799 -0.073392 1.155626 -4.766589 0.502812 -11.124329 -0.020404 6.627138 21.525845 0.000000 0.000000 0.000000 -3.671051 0.205403 -0.955403 1.329082 -0.266607 -5.094365 1.454465 -6.648767 23.315392 0.000000 0.000000 0.000000 -5.280603 0.233920 13.756965 8.486304 -2.412799 -15.012719 -1.345690 -1.902864 28.262525 -5.492177 4.282293 -19.035888 0.000000 0.000000 0.000000 -31.780620 -12.138330 8.303662 -42.653454 -27.572686 1.536077 13.996108 -44.528009 -2.586553 0.000000 0.000000 0.000000 16.528446 22.681814 9.840484 57.250569 28.783063 6.098382 -16.108279 42.099642 -3.951860 0.000000 0.000000 0.000000 
-0.040582 0.973637 -0.012013 -2.762065 -3.717664 3.419386 9.000217 -0.081353 1.011451 -4.664405 0.497788 -11.065480 0.234957 6.879513 21.016673 0.000000 0.000000 0.000000 -3.582582 0.203481 -0.965583 1.310589 -0.274893 -5.437853 1.606153 -6.502621 23.697780 0.000000 0.000000 0.000000 -5.280490 0.228649 13.484386 8.253106 -2.332272 -15.037525 -1.232822 -1.650238 28.384435 -5.441349 4.289819 -19.440304 0.000000 0.000000 0.000000 -31.223077 -12.247001 8.184111 -42.353187 -27.832594 1.625579 14.940661 -44.407072 -2.984133 0.000000 0.000000 0.000000 16.778984 22.766784 10.006765 57.342250 29.020557 6.235562 -15.576284 41.968095 -3.700619 0.000000 0.000000 0.000000 
